<svg width="340" height="30" viewBox="0 0 340 30" fill="none" xmlns="http://www.w3.org/2000/svg">
<path d="M0.337049 27.693C0.0759832 27.783 -0.0626971 28.0676 0.0272982 28.3286C0.117293 28.5897 0.401885 28.7284 0.662951 28.6384L0.5 28.1657L0.337049 27.693ZM339.856 28.1657L336.056 23.8193L334.192 29.2837L339.856 28.1657ZM0.5 28.1657L0.662951 28.6384C1.63206 28.3043 2.60331 27.973 3.57669 27.6445L3.41681 27.1708L3.25692 26.697C2.2815 27.0262 1.3082 27.3582 0.337049 27.693L0.5 28.1657ZM9.27432 25.2359L9.4281 25.7116C11.3787 25.0812 13.3375 24.4619 15.3045 23.8538L15.1568 23.3761L15.0091 22.8984C13.0381 23.5077 11.0752 24.1283 9.12055 24.7601L9.27432 25.2359ZM21.0597 21.592L21.2013 22.0716C23.1668 21.4911 25.14 20.9217 27.1209 20.3637L26.9853 19.8824L26.8497 19.4011C24.8648 19.9604 22.8875 20.5309 20.9181 21.1125L21.0597 21.592ZM32.9325 18.2469L33.0621 18.7298C35.042 18.1985 37.0292 17.6785 39.0237 17.1697L38.9001 16.6852L38.7765 16.2007C36.778 16.7105 34.7868 17.2316 32.8029 17.764L32.9325 18.2469ZM44.8871 15.1971L45.0047 15.6831C46.997 15.2009 48.9963 14.7298 51.0024 14.2701L50.8907 13.7827L50.779 13.2954C48.7689 13.756 46.7657 14.228 44.7694 14.7112L44.8871 15.1971ZM56.9102 12.4417L57.016 12.9304C59.0193 12.4967 61.0293 12.0743 63.0458 11.6633L62.9459 11.1733L62.846 10.6834C60.8257 11.0953 58.8117 11.5185 56.8044 11.953L56.9102 12.4417ZM68.9969 9.97749L69.0909 10.4686C71.1045 10.0831 73.1243 9.70892 75.1503 9.34606L75.0621 8.85389L74.974 8.36172C72.9441 8.72529 70.9204 9.10021 68.9029 9.48641L68.9969 9.97749ZM81.1406 7.80228L81.223 8.29546C83.2455 7.95786 85.2738 7.63152 87.308 7.31655L87.2315 6.82244L87.155 6.32833C85.117 6.6439 83.0847 6.97086 81.0583 7.3091L81.1406 7.80228ZM93.3312 5.91446L93.402 6.40944C95.4313 6.11947 97.4662 5.84079 99.5065 5.57347L99.4416 5.07771L99.3766 4.58194C97.3325 4.84977 95.2937 5.12898 93.2605 5.41949L93.3312 5.91446ZM105.562 4.31194L105.621 4.80842C107.657 4.56565 109.698 4.33416 111.744 4.11406L111.69 3.61693L111.637 3.1198C109.587 3.34031 107.542 3.57223 105.502 3.81546L105.562 4.31194ZM117.827 2.99246L117.874 3.49017C119.916 3.29428 121.962 3.1097 124.012 2.93651L123.97 2.43828L123.928 1.94006C121.874 2.11356 119.824 2.29849 117.779 2.49474L117.827 2.99246ZM130.12 1.95419L130.156 2.45286C132.202 2.30356 134.251 2.16557 136.306 2.039L136.275 1.53994L136.244 1.04089C134.186 1.1677 132.133 1.30594 130.084 1.45552L130.12 1.95419ZM142.433 1.1954L142.458 1.69477C144.506 1.59177 146.557 1.50011 148.614 1.41985L148.594 0.920226L148.575 0.420607C146.515 0.501013 144.459 0.592849 142.408 0.696029L142.433 1.1954ZM154.758 0.714181L154.772 1.21399C156.822 1.15695 158.875 1.11125 160.933 1.07696L160.924 0.577034L160.916 0.0771036C158.855 0.111453 156.798 0.157238 154.744 0.214374L154.758 0.714181ZM167.092 0.508558L167.095 1.00855C168.122 1.00285 169.149 1 170.178 1V0.5V0C169.148 0 168.118 0.00285873 167.089 0.0085659L167.092 0.508558ZM170.178 0.5V1C171.207 1 172.235 1.00285 173.262 1.00855L173.265 0.508558L173.267 0.00856605C172.239 0.00285876 171.209 0 170.178 0V0.5ZM179.432 0.577035L179.424 1.07697C181.481 1.11125 183.535 1.15695 185.584 1.21399L185.598 0.714181L185.612 0.214375C183.559 0.157238 181.502 0.111453 179.44 0.077104L179.432 0.577035ZM191.762 0.920227L191.743 1.41985C193.799 1.50011 195.851 1.59177 197.899 1.69477L197.924 1.1954L197.949 0.696029C195.897 0.592849 193.842 0.501014 191.782 0.420608L191.762 0.920227ZM204.082 1.53994L204.051 2.039C206.105 2.16557 208.155 2.30356 210.2 2.45286L210.237 1.95419L210.273 1.45552C208.224 1.30594 206.17 1.1677 204.112 1.04089L204.082 1.53994ZM216.386 2.43828L216.344 2.93651C218.395 3.1097 220.441 3.29428 222.482 3.49017L222.53 2.99246L222.578 2.49474C220.533 2.29849 218.483 2.11356 216.428 1.94006L216.386 2.43828ZM228.666 3.61693L228.613 4.11406C230.659 4.33416 232.7 4.56565 234.736 4.80842L234.795 4.31194L234.854 3.81546C232.815 3.57223 230.77 3.34031 228.72 3.1198L228.666 3.61693ZM240.915 5.0777L240.85 5.57347C242.89 5.84079 244.925 6.11947 246.955 6.40943L247.025 5.91446L247.096 5.41949C245.063 5.12898 243.024 4.84976 240.98 4.58194L240.915 5.0777ZM253.125 6.82244L253.048 7.31655C255.083 7.63152 257.111 7.95786 259.134 8.29546L259.216 7.80228L259.298 7.3091C257.272 6.97086 255.24 6.6439 253.202 6.32832L253.125 6.82244ZM265.294 8.85389L265.206 9.34605C267.232 9.70892 269.252 10.0831 271.266 10.4686L271.36 9.97749L271.454 9.48641C269.436 9.10021 267.412 8.72528 265.383 8.36172L265.294 8.85389ZM277.411 11.1733L277.311 11.6633C279.327 12.0743 281.337 12.4967 283.341 12.9304L283.446 12.4417L283.552 11.953C281.545 11.5185 279.531 11.0953 277.51 10.6834L277.411 11.1733ZM289.466 13.7827L289.354 14.2701C291.36 14.7298 293.359 15.2009 295.352 15.6831L295.469 15.1971L295.587 14.7112C293.591 14.228 291.588 13.756 289.577 13.2954L289.466 13.7827ZM301.456 16.6852L301.333 17.1697C303.327 17.6785 305.315 18.1986 307.294 18.7298L307.424 18.2469L307.554 17.764C305.57 17.2316 303.578 16.7105 301.58 16.2007L301.456 16.6852ZM313.371 19.8824L313.236 20.3637C315.216 20.9218 317.19 21.4911 319.155 22.0716L319.297 21.592L319.438 21.1125C317.469 20.5309 315.492 19.9604 313.507 19.4011L313.371 19.8824ZM325.2 23.3761L325.052 23.8538C327.019 24.4619 328.978 25.0812 330.928 25.7116L331.082 25.2359L331.236 24.7601C329.281 24.1284 327.318 23.5077 325.347 22.8984L325.2 23.3761ZM0.337049 27.693C0.0759832 27.783 -0.0626971 28.0676 0.0272982 28.3286C0.117293 28.5897 0.401885 28.7284 0.662951 28.6384L0.5 28.1657L0.337049 27.693ZM339.856 28.1657L336.056 23.8193L334.192 29.2837L339.856 28.1657ZM0.5 28.1657L0.662951 28.6384C1.63206 28.3043 2.60331 27.973 3.57669 27.6445L3.41681 27.1708L3.25692 26.697C2.2815 27.0262 1.3082 27.3582 0.337049 27.693L0.5 28.1657ZM9.27432 25.2359L9.4281 25.7116C11.3787 25.0812 13.3375 24.4619 15.3045 23.8538L15.1568 23.3761L15.0091 22.8984C13.0381 23.5077 11.0752 24.1283 9.12055 24.7601L9.27432 25.2359ZM21.0597 21.592L21.2013 22.0716C23.1668 21.4911 25.14 20.9217 27.1209 20.3637L26.9853 19.8824L26.8497 19.4011C24.8648 19.9604 22.8875 20.5309 20.9181 21.1125L21.0597 21.592ZM32.9325 18.2469L33.0621 18.7298C35.042 18.1985 37.0292 17.6785 39.0237 17.1697L38.9001 16.6852L38.7765 16.2007C36.778 16.7105 34.7868 17.2316 32.8029 17.764L32.9325 18.2469ZM44.8871 15.1971L45.0047 15.6831C46.997 15.2009 48.9963 14.7298 51.0024 14.2701L50.8907 13.7827L50.779 13.2954C48.7689 13.756 46.7657 14.228 44.7694 14.7112L44.8871 15.1971ZM56.9102 12.4417L57.016 12.9304C59.0193 12.4967 61.0293 12.0743 63.0458 11.6633L62.9459 11.1733L62.846 10.6834C60.8257 11.0953 58.8117 11.5185 56.8044 11.953L56.9102 12.4417ZM68.9969 9.97749L69.0909 10.4686C71.1045 10.0831 73.1243 9.70892 75.1503 9.34606L75.0621 8.85389L74.974 8.36172C72.9441 8.72529 70.9204 9.10021 68.9029 9.48641L68.9969 9.97749ZM81.1406 7.80228L81.223 8.29546C83.2455 7.95786 85.2738 7.63152 87.308 7.31655L87.2315 6.82244L87.155 6.32833C85.117 6.6439 83.0847 6.97086 81.0583 7.3091L81.1406 7.80228ZM93.3312 5.91446L93.402 6.40944C95.4313 6.11947 97.4662 5.84079 99.5065 5.57347L99.4416 5.07771L99.3766 4.58194C97.3325 4.84977 95.2937 5.12898 93.2605 5.41949L93.3312 5.91446ZM105.562 4.31194L105.621 4.80842C107.657 4.56565 109.698 4.33416 111.744 4.11406L111.69 3.61693L111.637 3.1198C109.587 3.34031 107.542 3.57223 105.502 3.81546L105.562 4.31194ZM117.827 2.99246L117.874 3.49017C119.916 3.29428 121.962 3.1097 124.012 2.93651L123.97 2.43828L123.928 1.94006C121.874 2.11356 119.824 2.29849 117.779 2.49474L117.827 2.99246ZM130.12 1.95419L130.156 2.45286C132.202 2.30356 134.251 2.16557 136.306 2.039L136.275 1.53994L136.244 1.04089C134.186 1.1677 132.133 1.30594 130.084 1.45552L130.12 1.95419ZM142.433 1.1954L142.458 1.69477C144.506 1.59177 146.557 1.50011 148.614 1.41985L148.594 0.920226L148.575 0.420607C146.515 0.501013 144.459 0.592849 142.408 0.696029L142.433 1.1954ZM154.758 0.714181L154.772 1.21399C156.822 1.15695 158.875 1.11125 160.933 1.07696L160.924 0.577034L160.916 0.0771036C158.855 0.111453 156.798 0.157238 154.744 0.214374L154.758 0.714181ZM167.092 0.508558L167.095 1.00855C168.122 1.00285 169.149 1 170.178 1V0.5V0C169.148 0 168.118 0.00285873 167.089 0.0085659L167.092 0.508558ZM170.178 0.5V1C171.207 1 172.235 1.00285 173.262 1.00855L173.265 0.508558L173.267 0.00856605C172.239 0.00285876 171.209 0 170.178 0V0.5ZM179.432 0.577035L179.424 1.07697C181.481 1.11125 183.535 1.15695 185.584 1.21399L185.598 0.714181L185.612 0.214375C183.559 0.157238 181.502 0.111453 179.44 0.077104L179.432 0.577035ZM191.762 0.920227L191.743 1.41985C193.799 1.50011 195.851 1.59177 197.899 1.69477L197.924 1.1954L197.949 0.696029C195.897 0.592849 193.842 0.501014 191.782 0.420608L191.762 0.920227ZM204.082 1.53994L204.051 2.039C206.105 2.16557 208.155 2.30356 210.2 2.45286L210.237 1.95419L210.273 1.45552C208.224 1.30594 206.17 1.1677 204.112 1.04089L204.082 1.53994ZM216.386 2.43828L216.344 2.93651C218.395 3.1097 220.441 3.29428 222.482 3.49017L222.53 2.99246L222.578 2.49474C220.533 2.29849 218.483 2.11356 216.428 1.94006L216.386 2.43828ZM228.666 3.61693L228.613 4.11406C230.659 4.33416 232.7 4.56565 234.736 4.80842L234.795 4.31194L234.854 3.81546C232.815 3.57223 230.77 3.34031 228.72 3.1198L228.666 3.61693ZM240.915 5.0777L240.85 5.57347C242.89 5.84079 244.925 6.11947 246.955 6.40943L247.025 5.91446L247.096 5.41949C245.063 5.12898 243.024 4.84976 240.98 4.58194L240.915 5.0777ZM253.125 6.82244L253.048 7.31655C255.083 7.63152 257.111 7.95786 259.134 8.29546L259.216 7.80228L259.298 7.3091C257.272 6.97086 255.24 6.6439 253.202 6.32832L253.125 6.82244ZM265.294 8.85389L265.206 9.34605C267.232 9.70892 269.252 10.0831 271.266 10.4686L271.36 9.97749L271.454 9.48641C269.436 9.10021 267.412 8.72528 265.383 8.36172L265.294 8.85389ZM277.411 11.1733L277.311 11.6633C279.327 12.0743 281.337 12.4967 283.341 12.9304L283.446 12.4417L283.552 11.953C281.545 11.5185 279.531 11.0953 277.51 10.6834L277.411 11.1733ZM289.466 13.7827L289.354 14.2701C291.36 14.7298 293.359 15.2009 295.352 15.6831L295.469 15.1971L295.587 14.7112C293.591 14.228 291.588 13.756 289.577 13.2954L289.466 13.7827ZM301.456 16.6852L301.333 17.1697C303.327 17.6785 305.315 18.1986 307.294 18.7298L307.424 18.2469L307.554 17.764C305.57 17.2316 303.578 16.7105 301.58 16.2007L301.456 16.6852ZM313.371 19.8824L313.236 20.3637C315.216 20.9218 317.19 21.4911 319.155 22.0716L319.297 21.592L319.438 21.1125C317.469 20.5309 315.492 19.9604 313.507 19.4011L313.371 19.8824ZM325.2 23.3761L325.052 23.8538C327.019 24.4619 328.978 25.0812 330.928 25.7116L331.082 25.2359L331.236 24.7601C329.281 24.1284 327.318 23.5077 325.347 22.8984L325.2 23.3761Z" fill="#1B1D21"/>
</svg>
