<svg width="340" height="30" viewBox="0 0 340 30" fill="none" xmlns="http://www.w3.org/2000/svg">
<path d="M0.337049 1.59071C0.0759832 1.50071 -0.0626971 1.21612 0.0272982 0.955057C0.117293 0.693991 0.401885 0.555311 0.662951 0.645306L0.5 1.11801L0.337049 1.59071ZM339.856 1.11801L336.056 5.46437L334.192 1.14441e-05L339.856 1.11801ZM0.5 1.11801L0.662951 0.645306C1.63206 0.979378 2.60331 1.31068 3.57669 1.63918L3.41681 2.11293L3.25692 2.58668C2.2815 2.25748 1.3082 1.92549 0.337049 1.59071L0.5 1.11801ZM9.27432 4.04782L9.4281 3.57205C11.3787 4.2025 13.3375 4.82183 15.3045 5.42992L15.1568 5.90761L15.0091 6.38531C13.0381 5.77595 11.0752 5.15534 9.12055 4.52358L9.27432 4.04782ZM21.0597 7.69165L21.2013 7.21213C23.1668 7.7926 25.14 8.36194 27.1209 8.92003L26.9853 9.40129L26.8497 9.88256C24.8648 9.32334 22.8875 8.75284 20.9181 8.17117L21.0597 7.69165ZM32.9325 11.0368L33.0621 10.5539C35.042 11.0851 37.0292 11.6052 39.0237 12.114L38.9001 12.5985L38.7765 13.083C36.778 12.5732 34.7868 12.052 32.8029 11.5197L32.9325 11.0368ZM44.8871 14.0866L45.0047 13.6006C46.997 14.0828 48.9963 14.5539 51.0024 15.0136L50.8907 15.501L50.779 15.9883C48.7689 15.5277 46.7657 15.0557 44.7694 14.5725L44.8871 14.0866ZM56.9102 16.842L57.016 16.3533C59.0193 16.787 61.0293 17.2093 63.0458 17.6204L62.9459 18.1104L62.846 18.6003C60.8257 18.1884 58.8117 17.7652 56.8044 17.3307L56.9102 16.842ZM68.9969 19.3062L69.0909 18.8151C71.1045 19.2006 73.1243 19.5748 75.1503 19.9376L75.0621 20.4298L74.974 20.922C72.9441 20.5584 70.9204 20.1835 68.9029 19.7973L68.9969 19.3062ZM81.1406 21.4814L81.223 20.9882C83.2455 21.3258 85.2738 21.6522 87.308 21.9671L87.2315 22.4613L87.155 22.9554C85.117 22.6398 83.0847 22.3128 81.0583 21.9746L81.1406 21.4814ZM93.3312 23.3692L93.402 22.8743C95.4313 23.1642 97.4662 23.4429 99.5065 23.7102L99.4416 24.206L99.3766 24.7017C97.3325 24.4339 95.2937 24.1547 93.2605 23.8642L93.3312 23.3692ZM105.562 24.9718L105.621 24.4753C107.657 24.718 109.698 24.9495 111.744 25.1696L111.69 25.6668L111.637 26.1639C109.587 25.9434 107.542 25.7115 105.502 25.4682L105.562 24.9718ZM117.827 26.2912L117.874 25.7935C119.916 25.9894 121.962 26.174 124.012 26.3472L123.97 26.8454L123.928 27.3436C121.874 27.1701 119.824 26.9852 117.779 26.7889L117.827 26.2912ZM130.12 27.3295L130.156 26.8308C132.202 26.9801 134.251 27.1181 136.306 27.2447L136.275 27.7437L136.244 28.2428C134.186 28.116 132.133 27.9778 130.084 27.8282L130.12 27.3295ZM142.433 28.0883L142.458 27.5889C144.506 27.6919 146.557 27.7836 148.614 27.8638L148.594 28.3635L148.575 28.8631C146.515 28.7827 144.459 28.6908 142.408 28.5877L142.433 28.0883ZM154.758 28.5695L154.772 28.0697C156.822 28.1267 158.875 28.1724 160.933 28.2067L160.924 28.7067L160.916 29.2066C158.855 29.1722 156.798 29.1265 154.744 29.0693L154.758 28.5695ZM167.092 28.7751L167.095 28.2751C168.122 28.2808 169.149 28.2837 170.178 28.2837V28.7837V29.2837C169.148 29.2837 168.118 29.2808 167.089 29.2751L167.092 28.7751ZM170.178 28.7837V28.2837C171.207 28.2837 172.235 28.2808 173.262 28.2751L173.265 28.7751L173.267 29.2751C172.239 29.2808 171.209 29.2837 170.178 29.2837V28.7837ZM179.432 28.7067L179.424 28.2067C181.481 28.1724 183.535 28.1267 185.584 28.0697L185.598 28.5695L185.612 29.0693C183.559 29.1265 181.502 29.1722 179.44 29.2066L179.432 28.7067ZM191.762 28.3635L191.743 27.8638C193.799 27.7836 195.851 27.6919 197.899 27.5889L197.924 28.0883L197.949 28.5877C195.897 28.6908 193.842 28.7827 191.782 28.8631L191.762 28.3635ZM204.082 27.7437L204.051 27.2447C206.105 27.1181 208.155 26.9801 210.2 26.8308L210.237 27.3295L210.273 27.8282C208.224 27.9778 206.17 28.116 204.112 28.2428L204.082 27.7437ZM216.386 26.8454L216.344 26.3472C218.395 26.174 220.441 25.9894 222.482 25.7935L222.53 26.2912L222.578 26.7889C220.533 26.9852 218.483 27.1701 216.428 27.3436L216.386 26.8454ZM228.666 25.6668L228.613 25.1696C230.659 24.9495 232.7 24.718 234.736 24.4753L234.795 24.9718L234.854 25.4682C232.815 25.7115 230.77 25.9434 228.72 26.1639L228.666 25.6668ZM240.915 24.206L240.85 23.7102C242.89 23.4429 244.925 23.1642 246.955 22.8743L247.025 23.3692L247.096 23.8642C245.063 24.1547 243.024 24.4339 240.98 24.7017L240.915 24.206ZM253.125 22.4613L253.048 21.9671C255.083 21.6522 257.111 21.3258 259.134 20.9882L259.216 21.4814L259.298 21.9746C257.272 22.3128 255.24 22.6398 253.202 22.9554L253.125 22.4613ZM265.294 20.4298L265.206 19.9376C267.232 19.5748 269.252 19.2006 271.266 18.8151L271.36 19.3062L271.454 19.7973C269.436 20.1835 267.412 20.5584 265.383 20.922L265.294 20.4298ZM277.411 18.1104L277.311 17.6204C279.327 17.2094 281.337 16.787 283.341 16.3533L283.446 16.842L283.552 17.3307C281.545 17.7652 279.531 18.1884 277.51 18.6003L277.411 18.1104ZM289.466 15.501L289.354 15.0136C291.36 14.5539 293.359 14.0828 295.352 13.6006L295.469 14.0866L295.587 14.5725C293.591 15.0557 291.588 15.5277 289.577 15.9883L289.466 15.501ZM301.456 12.5985L301.333 12.114C303.327 11.6052 305.315 11.0851 307.294 10.5539L307.424 11.0368L307.554 11.5197C305.57 12.052 303.578 12.5732 301.58 13.083L301.456 12.5985ZM313.371 9.40129L313.236 8.92002C315.216 8.36194 317.19 7.7926 319.155 7.21212L319.297 7.69164L319.438 8.17117C317.469 8.75283 315.492 9.32333 313.507 9.88256L313.371 9.40129ZM325.2 5.90761L325.052 5.42992C327.019 4.82182 328.978 4.20249 330.928 3.57204L331.082 4.04781L331.236 4.52358C329.281 5.15534 327.318 5.77595 325.347 6.3853L325.2 5.90761ZM0.337049 1.59071C0.0759832 1.50071 -0.0626971 1.21612 0.0272982 0.955057C0.117293 0.693991 0.401885 0.555311 0.662951 0.645306L0.5 1.11801L0.337049 1.59071ZM339.856 1.11801L336.056 5.46437L334.192 1.14441e-05L339.856 1.11801ZM0.5 1.11801L0.662951 0.645306C1.63206 0.979378 2.60331 1.31068 3.57669 1.63918L3.41681 2.11293L3.25692 2.58668C2.2815 2.25748 1.3082 1.92549 0.337049 1.59071L0.5 1.11801ZM9.27432 4.04782L9.4281 3.57205C11.3787 4.2025 13.3375 4.82183 15.3045 5.42992L15.1568 5.90761L15.0091 6.38531C13.0381 5.77595 11.0752 5.15534 9.12055 4.52358L9.27432 4.04782ZM21.0597 7.69165L21.2013 7.21213C23.1668 7.7926 25.14 8.36194 27.1209 8.92003L26.9853 9.40129L26.8497 9.88256C24.8648 9.32334 22.8875 8.75284 20.9181 8.17117L21.0597 7.69165ZM32.9325 11.0368L33.0621 10.5539C35.042 11.0851 37.0292 11.6052 39.0237 12.114L38.9001 12.5985L38.7765 13.083C36.778 12.5732 34.7868 12.052 32.8029 11.5197L32.9325 11.0368ZM44.8871 14.0866L45.0047 13.6006C46.997 14.0828 48.9963 14.5539 51.0024 15.0136L50.8907 15.501L50.779 15.9883C48.7689 15.5277 46.7657 15.0557 44.7694 14.5725L44.8871 14.0866ZM56.9102 16.842L57.016 16.3533C59.0193 16.787 61.0293 17.2093 63.0458 17.6204L62.9459 18.1104L62.846 18.6003C60.8257 18.1884 58.8117 17.7652 56.8044 17.3307L56.9102 16.842ZM68.9969 19.3062L69.0909 18.8151C71.1045 19.2006 73.1243 19.5748 75.1503 19.9376L75.0621 20.4298L74.974 20.922C72.9441 20.5584 70.9204 20.1835 68.9029 19.7973L68.9969 19.3062ZM81.1406 21.4814L81.223 20.9882C83.2455 21.3258 85.2738 21.6522 87.308 21.9671L87.2315 22.4613L87.155 22.9554C85.117 22.6398 83.0847 22.3128 81.0583 21.9746L81.1406 21.4814ZM93.3312 23.3692L93.402 22.8743C95.4313 23.1642 97.4662 23.4429 99.5065 23.7102L99.4416 24.206L99.3766 24.7017C97.3325 24.4339 95.2937 24.1547 93.2605 23.8642L93.3312 23.3692ZM105.562 24.9718L105.621 24.4753C107.657 24.718 109.698 24.9495 111.744 25.1696L111.69 25.6668L111.637 26.1639C109.587 25.9434 107.542 25.7115 105.502 25.4682L105.562 24.9718ZM117.827 26.2912L117.874 25.7935C119.916 25.9894 121.962 26.174 124.012 26.3472L123.97 26.8454L123.928 27.3436C121.874 27.1701 119.824 26.9852 117.779 26.7889L117.827 26.2912ZM130.12 27.3295L130.156 26.8308C132.202 26.9801 134.251 27.1181 136.306 27.2447L136.275 27.7437L136.244 28.2428C134.186 28.116 132.133 27.9778 130.084 27.8282L130.12 27.3295ZM142.433 28.0883L142.458 27.5889C144.506 27.6919 146.557 27.7836 148.614 27.8638L148.594 28.3635L148.575 28.8631C146.515 28.7827 144.459 28.6908 142.408 28.5877L142.433 28.0883ZM154.758 28.5695L154.772 28.0697C156.822 28.1267 158.875 28.1724 160.933 28.2067L160.924 28.7067L160.916 29.2066C158.855 29.1722 156.798 29.1265 154.744 29.0693L154.758 28.5695ZM167.092 28.7751L167.095 28.2751C168.122 28.2808 169.149 28.2837 170.178 28.2837V28.7837V29.2837C169.148 29.2837 168.118 29.2808 167.089 29.2751L167.092 28.7751ZM170.178 28.7837V28.2837C171.207 28.2837 172.235 28.2808 173.262 28.2751L173.265 28.7751L173.267 29.2751C172.239 29.2808 171.209 29.2837 170.178 29.2837V28.7837ZM179.432 28.7067L179.424 28.2067C181.481 28.1724 183.535 28.1267 185.584 28.0697L185.598 28.5695L185.612 29.0693C183.559 29.1265 181.502 29.1722 179.44 29.2066L179.432 28.7067ZM191.762 28.3635L191.743 27.8638C193.799 27.7836 195.851 27.6919 197.899 27.5889L197.924 28.0883L197.949 28.5877C195.897 28.6908 193.842 28.7827 191.782 28.8631L191.762 28.3635ZM204.082 27.7437L204.051 27.2447C206.105 27.1181 208.155 26.9801 210.2 26.8308L210.237 27.3295L210.273 27.8282C208.224 27.9778 206.17 28.116 204.112 28.2428L204.082 27.7437ZM216.386 26.8454L216.344 26.3472C218.395 26.174 220.441 25.9894 222.482 25.7935L222.53 26.2912L222.578 26.7889C220.533 26.9852 218.483 27.1701 216.428 27.3436L216.386 26.8454ZM228.666 25.6668L228.613 25.1696C230.659 24.9495 232.7 24.718 234.736 24.4753L234.795 24.9718L234.854 25.4682C232.815 25.7115 230.77 25.9434 228.72 26.1639L228.666 25.6668ZM240.915 24.206L240.85 23.7102C242.89 23.4429 244.925 23.1642 246.955 22.8743L247.025 23.3692L247.096 23.8642C245.063 24.1547 243.024 24.4339 240.98 24.7017L240.915 24.206ZM253.125 22.4613L253.048 21.9671C255.083 21.6522 257.111 21.3258 259.134 20.9882L259.216 21.4814L259.298 21.9746C257.272 22.3128 255.24 22.6398 253.202 22.9554L253.125 22.4613ZM265.294 20.4298L265.206 19.9376C267.232 19.5748 269.252 19.2006 271.266 18.8151L271.36 19.3062L271.454 19.7973C269.436 20.1835 267.412 20.5584 265.383 20.922L265.294 20.4298ZM277.411 18.1104L277.311 17.6204C279.327 17.2094 281.337 16.787 283.341 16.3533L283.446 16.842L283.552 17.3307C281.545 17.7652 279.531 18.1884 277.51 18.6003L277.411 18.1104ZM289.466 15.501L289.354 15.0136C291.36 14.5539 293.359 14.0828 295.352 13.6006L295.469 14.0866L295.587 14.5725C293.591 15.0557 291.588 15.5277 289.577 15.9883L289.466 15.501ZM301.456 12.5985L301.333 12.114C303.327 11.6052 305.315 11.0851 307.294 10.5539L307.424 11.0368L307.554 11.5197C305.57 12.052 303.578 12.5732 301.58 13.083L301.456 12.5985ZM313.371 9.40129L313.236 8.92002C315.216 8.36194 317.19 7.7926 319.155 7.21212L319.297 7.69164L319.438 8.17117C317.469 8.75283 315.492 9.32333 313.507 9.88256L313.371 9.40129ZM325.2 5.90761L325.052 5.42992C327.019 4.82182 328.978 4.20249 330.928 3.57204L331.082 4.04781L331.236 4.52358C329.281 5.15534 327.318 5.77595 325.347 6.3853L325.2 5.90761Z" fill="#1B1D21"/>
</svg>
