<svg width="627" height="465" viewBox="0 0 627 465" fill="none" xmlns="http://www.w3.org/2000/svg">
<path d="M342.962 145.636C408.226 185.712 461.321 231.707 494.411 273.658C510.957 294.634 522.483 314.578 528.039 332.246C533.595 349.916 533.163 365.247 525.898 377.079C518.632 388.911 505.155 396.231 486.883 399.269C468.612 402.306 445.612 401.049 419.419 395.781C367.038 385.247 302 358.701 236.736 318.625C171.472 278.549 118.377 232.554 85.2874 190.603C68.7414 169.627 57.2155 149.683 51.6596 132.015C46.1032 114.345 46.5349 99.0142 53.8006 87.1821C61.0663 75.3499 74.5436 68.0299 92.8158 64.9922C111.086 61.9548 134.086 63.2125 160.279 68.4798C212.66 79.0138 277.698 105.56 342.962 145.636Z" stroke="#202217"/>
<path d="M389.962 145.636C455.226 185.712 508.321 231.707 541.411 273.658C557.957 294.634 569.483 314.578 575.039 332.246C580.595 349.916 580.163 365.247 572.898 377.079C565.632 388.911 552.155 396.231 533.883 399.269C515.612 402.306 492.612 401.049 466.419 395.781C414.038 385.247 349 358.701 283.736 318.625C218.472 278.549 165.377 232.554 132.287 190.603C115.741 169.627 104.216 149.683 98.6596 132.015C93.1032 114.345 93.5349 99.0142 100.801 87.1821C108.066 75.3499 121.544 68.0299 139.816 64.9922C158.086 61.9548 181.086 63.2125 207.279 68.4798C259.66 79.0138 324.698 105.56 389.962 145.636Z" stroke="#202217"/>
</svg>
