<svg width="398" height="343" viewBox="0 0 398 343" fill="none" xmlns="http://www.w3.org/2000/svg">
<path d="M262.361 92.2465C314.216 134.055 353.963 180.779 376.318 222.497C387.497 243.357 394.31 262.932 396.136 279.993C397.961 297.049 394.799 311.536 386.105 322.32C377.41 333.104 363.924 339.266 346.868 341.1C329.808 342.934 309.233 340.428 286.476 333.928C240.966 320.928 186.876 291.995 135.021 250.187C83.1665 208.378 43.4202 161.655 21.0646 119.938C9.8861 99.0774 3.07361 79.5017 1.24778 62.4409C-0.577554 45.3844 2.58424 30.898 11.2789 20.114C19.9736 9.33012 33.4598 3.16781 50.5155 1.33424C67.5753 -0.49977 88.15 2.00679 110.907 8.50685C156.416 21.5061 210.507 50.4383 262.361 92.2465Z" stroke="#DCDCCF" stroke-width="1.5"/>
</svg>
